<?xml version="1.0" encoding="UTF-8"?>
<!DOCTYPE svg PUBLIC "-//W3C//DTD SVG 1.1//EN" "http://www.w3.org/Graphics/SVG/1.1/DTD/svg11.dtd">
<!-- Creator: CorelDRAW 2017 -->
<svg xmlns="http://www.w3.org/2000/svg" xml:space="preserve" width="25.9927mm" height="25.9927mm" version="1.1" style="shape-rendering:geometricPrecision; text-rendering:geometricPrecision; image-rendering:optimizeQuality; fill-rule:evenodd; clip-rule:evenodd"
viewBox="0 0 5123 5123"
 xmlns:xlink="http://www.w3.org/1999/xlink">
 <defs>
  <style type="text/css">
   <![CDATA[
    .fil0 {fill:#001D6D}
   ]]>
  </style>
 </defs>
 <g id="Capa_x0020_1">
  <metadata id="CorelCorpID_0Corel-Layer"/>
  <g id="_1542161849184">
   <path class="fil0" d="M2974 5089c-21,3 -43,7 -64,10 21,-3 43,-6 64,-10zm0 0z"/>
   <path class="fil0" d="M3025 5080c-10,2 -20,4 -31,5 10,-2 20,-3 31,-5zm0 0z"/>
   <path class="fil0" d="M2853 5106c-25,3 -50,5 -75,7 25,-2 50,-5 75,-7zm0 0z"/>
   <path class="fil0" d="M2902 5100c-12,2 -24,3 -36,4 12,-1 24,-3 36,-4zm0 0z"/>
   <path class="fil0" d="M3095 5067c-9,2 -18,4 -27,6 9,-2 18,-4 27,-6zm0 0z"/>
   <path class="fil0" d="M3268 5024c-7,2 -15,4 -22,6 7,-2 15,-4 22,-6zm0 0z"/>
   <path class="fil0" d="M3216 5038c-8,2 -16,4 -24,6 8,-2 16,-4 24,-6zm0 0z"/>
   <path class="fil0" d="M3147 5055c-8,2 -17,4 -25,6 8,-2 17,-4 25,-6zm0 0z"/>
   <path class="fil0" d="M2777 5113c-13,1 -27,2 -40,3 14,-1 27,-2 40,-3zm0 0z"/>
   <path class="fil0" d="M5123 2561c0,-1414 -1147,-2561 -2561,-2561 -1414,0 -2561,1147 -2561,2561 0,1414 1147,2561 2561,2561 15,0 30,0 45,-1l0 -1994 -550 0 0 -641 550 0 0 -472c0,-547 334,-845 822,-845 234,0 435,17 493,25l0 572 -337 0c-266,0 -317,126 -317,311l0 408 635 0 -83 641 -552 0 0 1895c1071,-307 1854,-1293 1854,-2462zm0 0z"/>
   <path class="fil0" d="M2730 5117c-27,2 -53,3 -80,4 27,-1 54,-2 80,-4zm0 0z"/>
   <path class="fil0" d="M2649 5121c-14,0 -28,1 -43,1 14,0 28,-1 43,-1zm0 0z"/>
  </g>
 </g>
</svg>
