<?xml version="1.0" encoding="UTF-8"?>
<!DOCTYPE svg PUBLIC "-//W3C//DTD SVG 1.1//EN" "http://www.w3.org/Graphics/SVG/1.1/DTD/svg11.dtd">
<!-- Creator: CorelDRAW 2017 -->
<svg xmlns="http://www.w3.org/2000/svg" xml:space="preserve" width="32.9505mm" height="24.713mm" version="1.1" style="shape-rendering:geometricPrecision; text-rendering:geometricPrecision; image-rendering:optimizeQuality; fill-rule:evenodd; clip-rule:evenodd"
viewBox="0 0 143237 107428"
 xmlns:xlink="http://www.w3.org/1999/xlink">
 <defs>
  <style type="text/css">
   <![CDATA[
    .fil1 {fill:#CFD8DC}
    .fil0 {fill:#ECEFF1}
    .fil2 {fill:#F44336}
   ]]>
  </style>
 </defs>
 <g id="Capa_x0020_1">
  <metadata id="CorelCorpID_0Corel-Layer"/>
  <g id="_1542109230464">
   <rect class="fil0" x="17905" width="107428" height="107428"/>
   <polygon class="fil1" points="71619,65012 125332,107428 125332,23688 "/>
   <path class="fil2" d="M129808 0l-4476 0 -53714 42416 -53714 -42416 -4476 0c-7413,0 -13428,6016 -13428,13428l0 80571c0,7412 6016,13428 13428,13428l4476 0 0 -83740 53714 41315 53714 -41324 0 83749 4476 0c7413,0 13428,-6016 13428,-13428l0 -80571c0,-7412 -6016,-13428 -13428,-13428z"/>
   <g>
   </g>
   <g>
   </g>
   <g>
   </g>
   <g>
   </g>
   <g>
   </g>
   <g>
   </g>
   <g>
   </g>
   <g>
   </g>
   <g>
   </g>
   <g>
   </g>
   <g>
   </g>
   <g>
   </g>
   <g>
   </g>
   <g>
   </g>
   <g>
   </g>
  </g>
 </g>
</svg>
