<?xml version="1.0" encoding="UTF-8"?>
<!DOCTYPE svg PUBLIC "-//W3C//DTD SVG 1.1//EN" "http://www.w3.org/Graphics/SVG/1.1/DTD/svg11.dtd">
<!-- Creator: CorelDRAW 2017 -->
<svg xmlns="http://www.w3.org/2000/svg" xml:space="preserve" width="189.748mm" height="215.9mm" version="1.1" style="shape-rendering:geometricPrecision; text-rendering:geometricPrecision; image-rendering:optimizeQuality; fill-rule:evenodd; clip-rule:evenodd"
viewBox="0 0 9432 10732"
 xmlns:xlink="http://www.w3.org/1999/xlink">
 <defs>
  <style type="text/css">
   <![CDATA[
    .fil0 {fill:#001D6D}
   ]]>
  </style>
 </defs>
 <g id="Capa_x0020_1">
  <metadata id="CorelCorpID_0Corel-Layer"/>
  <g id="_1542109244288">
   <g>
    <g>
     <path class="fil0" d="M4717 0c-520,0 -943,423 -943,943l0 3794c0,520 423,943 943,943 520,0 943,-423 943,-943l0 -3794c0,-520 -423,-943 -943,-943z"/>
    </g>
   </g>
   <g>
    <g>
     <path class="fil0" d="M7873 2494c-397,-358 -975,-317 -1321,39 -349,359 -376,966 66,1369 701,637 1055,1603 887,2577 -228,1322 -1378,2364 -2789,2367 -1446,3 -2553,-1064 -2782,-2319 -178,-980 150,-1961 880,-2624 440,-401 417,-1011 68,-1370 -347,-357 -928,-395 -1329,-33 -1109,1005 -1688,2490 -1527,3995 256,2393 2277,4238 4701,4238 2396,0 4359,-1849 4661,-4082 211,-1556 -356,-3110 -1515,-4157z"/>
    </g>
   </g>
   <g>
   </g>
   <g>
   </g>
   <g>
   </g>
   <g>
   </g>
   <g>
   </g>
   <g>
   </g>
   <g>
   </g>
   <g>
   </g>
   <g>
   </g>
   <g>
   </g>
   <g>
   </g>
   <g>
   </g>
   <g>
   </g>
   <g>
   </g>
   <g>
   </g>
  </g>
 </g>
</svg>
