<?xml version="1.0" encoding="UTF-8"?>
<!DOCTYPE svg PUBLIC "-//W3C//DTD SVG 1.1//EN" "http://www.w3.org/Graphics/SVG/1.1/DTD/svg11.dtd">
<!-- Creator: CorelDRAW 2017 -->
<svg xmlns="http://www.w3.org/2000/svg" xml:space="preserve" width="178.875mm" height="180.622mm" version="1.1" style="shape-rendering:geometricPrecision; text-rendering:geometricPrecision; image-rendering:optimizeQuality; fill-rule:evenodd; clip-rule:evenodd"
viewBox="0 0 8763 8849"
 xmlns:xlink="http://www.w3.org/1999/xlink">
 <defs>
  <style type="text/css">
   <![CDATA[
    .fil0 {fill:white}
   ]]>
  </style>
 </defs>
 <g id="Capa_x0020_1">
  <metadata id="CorelCorpID_0Corel-Layer"/>
  <path class="fil0" d="M8554 1679c-164,-187 -398,-291 -658,-291l-6298 0 -63 -475c-68,-512 -425,-913 -812,-913l-463 0c-143,0 -259,116 -259,259 0,143 116,259 259,259l463 0c83,0 259,176 298,463l742 5566c33,245 159,475 355,647 145,127 317,212 498,248 -73,135 -115,290 -115,454 0,526 428,953 953,953 526,0 953,-428 953,-953 0,-157 -38,-304 -105,-435l1358 0c-67,130 -105,278 -105,435 0,526 428,953 953,953 526,0 953,-428 953,-953 0,-157 -38,-304 -105,-435l679 0c143,0 259,-116 259,-259 0,-143 -116,-259 -259,-259l-5230 0c-253,0 -496,-212 -529,-463l-54 -407 2018 0c0,0 0,0 0,0 0,0 0,0 0,0l1665 0c0,0 0,0 0,0 0,0 0,0 0,0l1435 0c247,0 492,-95 688,-266 196,-172 322,-401 355,-647l372 -2789c34,-258 -37,-504 -201,-691l0 0zm-4666 6216c0,240 -195,435 -435,435 -240,0 -435,-195 -435,-435 0,-240 195,-435 435,-435 240,0 435,195 435,435zm3054 0c0,240 -195,435 -435,435 -240,0 -435,-195 -435,-435 0,-240 195,-435 435,-435 240,0 435,195 435,435zm1222 -5875c64,73 92,173 77,281l-156 1169 -1764 0 104 -1564 1470 0c109,0 204,40 268,114zm-3682 3533l-104 -1564 1389 0 -104 1564 -1180 0zm-139 -2083l-104 -1564 1667 0 -104 1564 -1458 0zm-624 -1564l104 1564 -1949 0 -209 -1564 2053 0zm-1776 2083l1914 0 104 1564 -1810 0 -209 -1564zm5396 1564l-1158 0 104 -1564 1729 0 -147 1101c-33,251 -276,463 -529,463l0 0zm0 0z"/>
 </g>
</svg>
