<?xml version="1.0" encoding="UTF-8"?>
<!DOCTYPE svg PUBLIC "-//W3C//DTD SVG 1.1//EN" "http://www.w3.org/Graphics/SVG/1.1/DTD/svg11.dtd">
<!-- Creator: CorelDRAW 2017 -->
<svg xmlns="http://www.w3.org/2000/svg" xml:space="preserve" width="7.5436mm" height="7.5438mm" version="1.1" style="shape-rendering:geometricPrecision; text-rendering:geometricPrecision; image-rendering:optimizeQuality; fill-rule:evenodd; clip-rule:evenodd"
viewBox="0 0 66 66"
 xmlns:xlink="http://www.w3.org/1999/xlink">
 <defs>
  <style type="text/css">
   <![CDATA[
    .fil1 {fill:#001D6D}
    .fil0 {fill:white}
   ]]>
  </style>
 </defs>
 <g id="Capa_x0020_1">
  <metadata id="CorelCorpID_0Corel-Layer"/>
  <circle class="fil0" cx="33" cy="33" r="30"/>
  <path class="fil1" d="M33 0c-18,0 -33,15 -33,33 0,6 2,11 4,16l-4 13c0,1 0,2 1,3 1,1 2,1 3,1l13 -4c5,3 11,4 16,4 18,0 33,-15 33,-33 0,-18 -15,-33 -33,-33zm0 61c-5,0 -10,-1 -15,-4 -1,0 -1,-1 -2,0l-10 3 3 -10c0,-1 0,-2 0,-2 -3,-4 -4,-9 -4,-15 0,-15 12,-28 28,-28 15,0 28,12 28,28 0,15 -12,28 -28,28zm3 -28c0,2 -1,3 -3,3 -2,0 -3,-1 -3,-3 0,-2 1,-3 3,-3 2,0 3,1 3,3zm13 0c0,2 -1,3 -3,3 -2,0 -3,-1 -3,-3 0,-2 1,-3 3,-3 2,0 3,1 3,3zm-26 0c0,2 -1,3 -3,3 -2,0 -3,-1 -3,-3 0,-2 1,-3 3,-3 2,0 3,1 3,3zm0 0z"/>
 </g>
</svg>
