<?xml version="1.0" encoding="UTF-8"?>
<!DOCTYPE svg PUBLIC "-//W3C//DTD SVG 1.1//EN" "http://www.w3.org/Graphics/SVG/1.1/DTD/svg11.dtd">
<!-- Creator: CorelDRAW 2017 -->
<svg xmlns="http://www.w3.org/2000/svg" xml:space="preserve" width="47.037mm" height="47.978mm" version="1.1" style="shape-rendering:geometricPrecision; text-rendering:geometricPrecision; image-rendering:optimizeQuality; fill-rule:evenodd; clip-rule:evenodd"
viewBox="0 0 790 806"
 xmlns:xlink="http://www.w3.org/1999/xlink">
 <defs>
  <style type="text/css">
   <![CDATA[
    .fil0 {fill:#242620;fill-rule:nonzero}
   ]]>
  </style>
 </defs>
 <g id="Capa_x0020_1">
  <metadata id="CorelCorpID_0Corel-Layer"/>
  <g id="_1542074427120">
   <g id="surface1">
    <path class="fil0" d="M550 478c97,-137 64,-326 -72,-422 -137,-97 -326,-64 -422,72 -97,137 -64,326 72,422 97,69 226,74 329,14l223 222c24,25 64,26 90,2 25,-24 26,-64 2,-90 -1,-1 -2,-2 -2,-2l-220 -218zm-247 21c-108,0 -195,-87 -195,-195 0,-108 87,-195 195,-195 108,0 195,87 195,195 0,108 -87,196 -195,196 0,0 0,0 0,0zm0 0z"/>
   </g>
  </g>
 </g>
</svg>
