<?xml version="1.0" encoding="UTF-8"?>
<!DOCTYPE svg PUBLIC "-//W3C//DTD SVG 1.1//EN" "http://www.w3.org/Graphics/SVG/1.1/DTD/svg11.dtd">
<!-- Creator: CorelDRAW 2017 -->
<svg xmlns="http://www.w3.org/2000/svg" xml:space="preserve" width="135.47mm" height="101.46mm" version="1.1" style="shape-rendering:geometricPrecision; text-rendering:geometricPrecision; image-rendering:optimizeQuality; fill-rule:evenodd; clip-rule:evenodd"
viewBox="0 0 4738 3549"
 xmlns:xlink="http://www.w3.org/1999/xlink">
 <defs>
  <style type="text/css">
   <![CDATA[
    .fil0 {fill:#001D6D}
   ]]>
  </style>
 </defs>
 <g id="Capa_x0020_1">
  <metadata id="CorelCorpID_0Corel-Layer"/>
  <g id="_1522476749552">
   <path class="fil0" d="M4302 0l-3866 0c-240,0 -436,196 -436,436 0,240 196,436 436,436l3866 0c240,0 436,-196 436,-436 0,-241 -196,-436 -436,-436l0 0z"/>
   <path class="fil0" d="M4302 1338l-3866 0c-240,0 -436,196 -436,436 0,240 196,436 436,436l3866 0c240,0 436,-196 436,-436 0,-241 -196,-436 -436,-436z"/>
   <path class="fil0" d="M4302 2676l-3866 0c-240,0 -436,196 -436,436 0,240 196,436 436,436l3866 0c240,0 436,-196 436,-436 0,-241 -196,-436 -436,-436l0 0z"/>
  </g>
 </g>
</svg>
