<?xml version="1.0" encoding="UTF-8"?>
<!DOCTYPE svg PUBLIC "-//W3C//DTD SVG 1.1//EN" "http://www.w3.org/Graphics/SVG/1.1/DTD/svg11.dtd">
<!-- Creator: CorelDRAW 2017 -->
<svg xmlns="http://www.w3.org/2000/svg" xml:space="preserve" width="135.465mm" height="135.467mm" version="1.1" style="shape-rendering:geometricPrecision; text-rendering:geometricPrecision; image-rendering:optimizeQuality; fill-rule:evenodd; clip-rule:evenodd"
viewBox="0 0 4505 4505"
 xmlns:xlink="http://www.w3.org/1999/xlink"
 enable-background="new 0 0 511.958 511.958">
 <defs>
  <style type="text/css">
   <![CDATA[
    .fil0 {fill:#001D6D}
   ]]>
  </style>
 </defs>
 <g id="Capa_x0020_1">
  <metadata id="CorelCorpID_0Corel-Layer"/>
  <g id="_2915246691760">
   <g>
    <g>
     <path class="fil0" d="M4312 193c-257,-257 -676,-257 -933,0l-2967 2967c-27,27 -19,25 -32,52l-373 1120c-16,47 -3,100 32,135 36,36 89,48 135,32 115,-38 -416,139 1123,-375 18,-6 35,-16 49,-30l2967 -2967c257,-257 257,-676 0,-933l0 0zm-3192 3712l-779 260 260 -779 146 0 0 241c0,73 59,132 132,132l241 0 0 146zm264 -224l0 -55c0,-73 -59,-132 -132,-132l-241 0 0 -241c0,-73 -59,-132 -132,-132l-55 0 2117 -2116 560 560 -2116 2117zm2303 -2303l-560 -560 187 -187 560 560 -187 187zm438 -438l-65 65 -560 -560 65 -65c154,-155 406,-154 560,0 154,154 154,406 0,560z"/>
    </g>
   </g>
  </g>
 </g>
</svg>
